<svg width="71" height="54" viewBox="0 0 71 54" fill="none" xmlns="http://www.w3.org/2000/svg">
<path d="M52.3291 0.625C58.8461 0.625 64.969 3.5245 69.6377 8.7793L70.085 9.29492L70.1582 9.38086L70.1592 9.39648C70.2991 9.59917 70.375 9.8394 70.375 10.0879L70.3721 52.1543C70.3719 52.8268 69.8302 53.3749 69.1562 53.375H1.84082C1.16684 53.375 0.625152 52.8268 0.625 52.1543V10.085C0.625004 9.79787 0.727114 9.51438 0.916992 9.29297C5.63844 3.71424 11.9418 0.625 18.6709 0.625C24.972 0.625129 30.8929 3.34184 35.499 8.26562C40.1056 3.33838 46.0305 0.62503 52.3291 0.625ZM52.3252 41.8867C46.4764 41.8869 40.9477 44.5275 36.7148 49.3594V50.9336H67.9365V49.3682C63.7031 44.5331 58.1765 41.8867 52.3252 41.8867ZM18.6699 41.8857C12.8186 41.8857 7.29257 44.5325 3.05957 49.3672V50.9336H34.2803V49.3672C30.047 44.5326 24.5213 41.8857 18.6699 41.8857ZM36.7188 45.8574C39.0068 43.7045 41.573 42.0583 44.3174 40.9727L36.998 38.5508V38.5498C36.9876 38.5464 36.9777 38.5443 36.9697 38.541C36.9606 38.5373 36.9529 38.532 36.9453 38.5283C36.8679 38.499 36.7922 38.4616 36.7188 38.415V45.8574ZM52.125 3.06934C46.3497 3.13095 40.904 5.77107 36.7207 10.5498V25.6084L42.915 31.4902C43.0404 31.608 43.1252 31.7448 43.1846 31.8779L43.1992 31.9014L43.2061 31.916L43.2119 31.9307L46.1729 39.4756L46.1738 39.4775C46.2805 39.7539 46.2817 40.0553 46.1875 40.3271C48.1698 39.7422 50.2287 39.4404 52.3291 39.4404C58.0829 39.4404 63.5302 41.7029 67.9404 45.8496V10.543C63.7071 5.71091 58.1809 3.06934 52.3291 3.06934H52.125ZM18.6699 3.07031C12.8214 3.07031 7.29242 5.71053 3.05957 10.542V45.8457C7.46945 41.6971 12.9136 39.4376 18.6699 39.4375C24.4237 39.4375 29.871 41.7001 34.2812 45.8467V36.1318L11.9453 14.9297V14.9287C10.0879 13.1633 10.0013 10.2079 11.7559 8.33594L11.9238 8.16602C13.6943 6.46248 16.5139 6.43299 18.3154 8.14453L34.2803 23.2998V10.543C30.0471 5.71141 24.5214 3.07031 18.6699 3.07031ZM39.5723 36.8291L42.9512 37.9482L41.6436 34.6191L39.5723 36.8291ZM16.6436 9.92285C15.7581 9.08316 14.3631 9.124 13.5283 10.0146H13.5273C12.6923 10.9032 12.7345 12.3146 13.6191 13.1562L37.3281 35.6611L40.3555 32.4316L16.6436 9.92285Z" fill="white" stroke="white" stroke-width="0.75"/>
</svg>
