<svg width="94" height="33" viewBox="0 0 94 33" fill="none" xmlns="http://www.w3.org/2000/svg">
<path d="M24.7666 1.80371C28.2026 0.795296 31.2808 -0.109592 35.5488 1.03125H35.5498C37.7584 1.62347 40.0835 3.10171 42.1221 4.89551C43.9231 6.4803 45.5323 8.3405 46.6699 10.1221C47.8074 8.34506 49.4171 6.48612 51.2178 4.90039C53.2562 3.10526 55.5811 1.62354 57.79 1.03125H57.791C62.0595 -0.109593 65.1421 0.803583 68.5723 1.80371C70.7706 2.44416 73.23 3.16213 76.377 3.45801H76.376C76.8806 3.49839 77.303 3.80128 77.5225 4.22949L77.6035 4.42188L77.6055 4.4248L78.5664 7.28711C80.2296 7.66561 81.8377 7.92338 83.4717 8.05469H83.4707C84.0113 8.08936 84.4848 8.44305 84.6836 8.93359L92.7344 28.5029L92.7373 28.5117C92.9138 28.9648 92.8578 29.4967 92.543 29.9053L92.5439 29.9062C92.2425 30.3023 91.7631 30.5207 91.2588 30.4727V30.4717C85.6924 29.9597 81.0179 28.4257 76.8975 26.9307L75.165 26.2959C70.7661 24.6793 67.0632 23.318 63.207 23.3066H63.1699C58.325 23.3066 52.739 26.2771 49.625 30.5508L49.624 30.5498C48.9199 31.5198 47.8598 32.0566 46.6621 32.0566C45.464 32.0566 44.4024 31.5202 43.6982 30.5498V30.5488C40.5717 26.2753 34.9904 23.3066 30.1543 23.3066H30.1162C26.2643 23.3142 22.557 24.6672 18.1602 26.2949L18.1592 26.2959C13.6224 27.963 8.42487 29.876 2.06348 30.4727H2.05859C1.56887 30.5134 1.07456 30.3102 0.773438 29.8984L0.770508 29.8945C0.484136 29.4945 0.419297 28.9668 0.604492 28.5068L0.605469 28.5029L8.65625 8.93359C8.8604 8.4299 9.33763 8.10153 9.86328 8.05469H9.87109C11.5019 7.93457 13.1185 7.67042 14.7725 7.28809L15.7344 4.4248L15.7363 4.41992C15.9082 3.92658 16.3336 3.55535 16.8604 3.4707L16.9678 3.45703C20.1119 3.16088 22.5696 2.44369 24.7666 1.80371ZM82.8818 20.1992H82.8809C83.0352 20.6494 82.9577 21.1554 82.6504 21.541C82.3478 21.9205 81.8705 22.1269 81.3887 22.0781V22.0771C77.3268 21.7048 74.2285 20.7907 71.5186 20.002H71.5176C67.5786 18.853 64.58 17.9859 60.3887 19.1064C58.4165 19.6327 56.1801 20.92 54.1211 22.6006C53.6704 22.9685 53.2302 23.3546 52.8047 23.7529C56.0065 21.6819 59.7254 20.4327 63.1777 20.4326H63.2314C67.6243 20.4527 71.8293 22.0003 76.1719 23.6035L77.7109 24.1689C81.1261 25.4139 84.8707 26.6754 89.1504 27.332L82.3584 10.8252C81.4432 10.726 80.5321 10.596 79.6143 10.4268L82.8818 20.1992ZM13.7207 10.4189C12.8044 10.5895 11.8933 10.723 10.9766 10.8184L4.18457 27.3232C9.10979 26.564 13.3325 25.0116 17.165 23.6035L18.7881 23.0078C22.5624 21.6372 26.2621 20.4502 30.1055 20.4326H30.1592C33.6231 20.4327 37.3543 21.6957 40.5625 23.7744C40.1271 23.3656 39.6768 22.9689 39.2148 22.5918C37.2844 21.0157 35.1979 19.7829 33.3193 19.1982L32.9463 19.0908C28.7554 17.9705 25.7609 18.8373 21.8174 19.9863C19.1056 20.7757 15.9951 21.6866 11.9434 22.0625H11.9395C11.4536 22.104 10.9897 21.9061 10.6855 21.5244L10.6807 21.5195C10.3941 21.1495 10.2972 20.6464 10.4541 20.1816L13.7207 10.4189ZM34.8145 3.80566C31.3418 2.87664 28.863 3.59034 25.5723 4.55176L25.5713 4.55273C23.5048 5.15233 21.1504 5.84448 18.165 6.20215L13.916 18.96C16.6626 18.5358 18.945 17.8768 21.0342 17.2637C23.7325 16.4733 26.2721 15.7314 29.1436 15.7314C30.5579 15.7315 32.0583 15.9096 33.7021 16.3506H33.7031C37.6901 17.4221 42.2479 20.8599 45.2451 24.6543V13.541C44.5676 11.8184 42.9974 9.66736 41.0576 7.79297C39.0857 5.88757 36.8058 4.33854 34.8145 3.80566ZM67.7725 4.54395C64.5724 3.61234 62.1465 2.91308 58.8516 3.71484L58.5303 3.79785C56.5388 4.33064 54.261 5.8789 52.29 7.7832C50.3514 9.65633 48.7808 11.8061 48.0996 13.5293L48.1025 24.6396C51.0986 20.8449 55.652 17.4065 59.6465 16.335C64.6453 14.9948 68.2672 16.0685 72.3252 17.248H72.3262C74.4037 17.8573 76.6946 18.5171 79.4424 18.9443L75.1787 6.19531C72.1947 5.8349 69.8421 5.15201 67.7725 4.54395Z" fill="white" stroke="white"/>
</svg>
