<svg width="54" height="66" viewBox="0 0 54 66" fill="none" xmlns="http://www.w3.org/2000/svg">
<path d="M13.5792 0.726318L51.4083 0.731201C52.359 0.731201 53.1504 1.4974 53.1505 2.47241V47.5808C53.1504 47.5945 53.148 47.606 53.1465 47.614C53.1451 47.6222 53.1432 47.6299 53.1417 47.6355C53.1387 47.6462 53.1357 47.6573 53.1339 47.6628C53.133 47.6655 53.1314 47.6672 53.1309 47.6687C53.1147 47.8236 53.1007 48.0196 53.0196 48.197L53.0137 48.2087C53.0164 48.2041 53.0155 48.2014 53.0108 48.2195C53.008 48.2303 53.0002 48.2513 52.9903 48.2761C52.9881 48.2852 52.9886 48.2937 52.9864 48.2996C52.9851 48.3031 52.9829 48.3062 52.9815 48.3093V48.3201L52.9659 48.3513C51.7328 50.8993 51.1212 53.326 51.087 55.7009V55.7175C51.0571 58.2068 51.6682 60.6124 52.9327 62.9919L52.9844 63.0935C53.2238 63.6105 53.1874 64.2232 52.8956 64.7185L52.8946 64.7205C52.5825 65.2312 52.0155 65.5621 51.3917 65.5623H10.1924C4.75523 65.5623 0.328658 61.1354 0.306702 55.699V10.5906C0.306702 5.15337 4.7387 0.726318 10.1885 0.726318H13.5792ZM10.1924 49.3054C6.66836 49.3054 3.81647 52.1573 3.81647 55.6814C3.81652 59.156 6.60588 61.9754 10.046 62.0535L10.0469 62.0232H10.1934L48.6788 62.0183C48.1292 60.506 47.7874 58.9641 47.6495 57.406H26.7315C25.7807 57.406 24.9893 56.6389 24.9893 55.6638C24.9894 54.7133 25.7557 53.9229 26.7305 53.9226L47.7012 53.9177C47.8558 52.4036 48.2153 50.8618 48.7667 49.3054H10.1924ZM10.1924 4.21362C6.68565 4.21362 3.81647 7.08374 3.81647 10.5906V48.1716C5.53981 46.701 7.75603 45.8171 10.1924 45.8171H11.8204V4.21362H10.1924ZM15.3243 45.822H49.6329V4.21362H15.3243V45.822Z" fill="white" stroke="white" stroke-width="0.3"/>
<path d="M39.2292 20.3916C40.1811 20.3916 40.9714 21.1771 40.9714 22.1338C40.9713 23.0845 40.2043 23.875 39.2292 23.875H37.8718C36.8974 23.875 36.1249 23.0849 36.1296 22.1328C36.13 21.1823 36.897 20.3916 37.8718 20.3916H39.2292Z" fill="white" stroke="white" stroke-width="0.3"/>
<path d="M32.2844 20.3916C33.2363 20.3916 34.0266 21.1771 34.0266 22.1338C34.0265 23.0845 33.2594 23.875 32.2844 23.875H24.2493C23.2789 23.875 22.5072 23.0848 22.5071 22.1338C22.5071 21.183 23.2742 20.3916 24.2493 20.3916H32.2844Z" fill="white" stroke="white" stroke-width="0.3"/>
<path d="M39.2297 27.8695C40.2048 27.8695 40.9719 28.6609 40.9719 29.6117C40.9718 30.5624 40.2047 31.3529 39.2297 31.3529H24.2493C23.2975 31.3529 22.5072 30.5683 22.5071 29.6117C22.5071 28.6609 23.2742 27.8695 24.2493 27.8695H39.2297Z" fill="white" stroke="white" stroke-width="0.3"/>
</svg>
