<svg width="75" height="76" viewBox="0 0 75 76" fill="none" xmlns="http://www.w3.org/2000/svg">
<mask id="path-1-outside-1_1391_11241" maskUnits="userSpaceOnUse" x="0" y="0" width="75" height="76" fill="black">
<rect fill="white" width="75" height="76"/>
<path d="M37.8833 75C35.7962 75 34.0542 73.6251 33.6861 71.8018C33.6434 71.7754 33.6105 71.7524 33.5678 71.7161L29.857 68.4487C29.6466 68.297 29.5119 68.0432 29.5119 67.7662V61.6304C28.6705 61.4853 28.023 60.7435 28.023 59.8565V58.3893C28.023 57.6706 28.4437 57.0475 29.0583 56.7606C28.7395 56.1935 28.5719 55.5208 28.5785 54.8285C28.5785 54.357 28.7231 53.8492 28.8743 53.259C29.1701 52.1446 29.5382 50.7532 29.1175 49.0718C28.2662 45.6693 27.0895 44.5977 25.5908 43.2294C24.4897 42.2238 23.2342 41.0764 21.8965 38.9003C20.1052 35.9792 19.3985 33.2887 19.4577 29.6057C19.507 26.2888 20.618 23.0906 22.6294 20.311L16.6147 18.1514V29.5292H17.1373C17.5744 29.5292 17.9458 29.8655 17.9787 30.3139L18.7774 41.1017C18.7938 41.3391 18.7116 41.5666 18.5572 41.7347C18.3961 41.9029 18.1693 42.0051 17.9425 42.0051H13.6172C13.3805 42.0051 13.1537 41.9029 12.996 41.7281C12.8349 41.5501 12.7593 41.3226 12.7758 41.0852L13.742 30.2974C13.7848 29.8589 14.1463 29.5292 14.5834 29.5292H14.9384V17.5513L9.89978 15.7379C8.31885 15.1708 7.37554 14.1092 7.37554 12.909C7.37554 11.7089 8.31885 10.6472 9.89978 10.0801L15.4873 8.0722C15.4873 8.0722 15.5037 8.0722 15.5136 8.0623L32.8282 1.84074C35.9506 0.719755 39.8192 0.719755 42.942 1.84074L65.8604 10.0702C67.4414 10.6373 68.3847 11.699 68.3847 12.8991C68.3847 14.0993 67.4414 15.1609 65.8604 15.728L53.6103 20.133C55.3095 22.886 56.243 26.1271 56.3021 29.5956C56.3613 33.285 55.6546 35.9754 53.8634 38.8903C52.5257 41.0663 51.2734 42.2071 50.1691 43.2193C48.6703 44.5876 47.4936 45.6591 46.6423 49.0617C46.2216 50.7498 46.593 52.1346 46.8856 53.249C47.0368 53.8326 47.1715 54.337 47.1814 54.8184C47.1814 55.5108 47.0137 56.1867 46.7015 56.7505C47.3161 57.0373 47.7369 57.6605 47.7369 58.3793V59.8465C47.7369 60.7334 47.0959 61.4752 46.248 61.6203V64.1624V64.2712V64.38V67.7562C46.248 68.0331 46.1132 68.287 45.893 68.4387L42.1921 71.7061C42.1921 71.7061 42.1165 71.7654 42.0738 71.7918C41.7024 73.6051 39.9604 74.99 37.8766 74.99L37.8833 75ZM35.4939 71.9304C35.8817 72.7415 36.8053 73.3152 37.8833 73.3152C38.9613 73.3152 39.885 72.7415 40.2728 71.9304H35.484H35.4939ZM41.3082 70.2423H41.3181L43.162 68.6136H32.5946L34.4549 70.2423H41.3082ZM31.2012 66.9255H44.562V65.1286H37.032C36.5686 65.1286 36.1906 64.7494 36.1906 64.2845C36.1906 63.8197 36.5686 63.4405 37.032 63.4405H44.562V61.6601H31.2012V63.4405H33.7681C34.2316 63.4405 34.6096 63.8197 34.6096 64.2845C34.6096 64.7494 34.2316 65.1286 33.7681 65.1286H31.2012V66.9255ZM45.4034 59.9687H45.9326C45.9983 59.9687 46.0509 59.9192 46.0509 59.85V58.3828C46.0509 58.3168 46.0016 58.2641 45.9326 58.2641H29.8271C29.7613 58.2641 29.7087 58.3135 29.7087 58.3828V59.85C29.7087 59.9159 29.758 59.9687 29.8271 59.9687H45.4034ZM31.6479 56.5859H44.1244C44.486 56.5859 44.7818 56.4771 45.0086 56.2397C45.3208 55.9199 45.5049 55.3858 45.5049 54.8484C45.5049 54.578 45.3964 54.1725 45.2682 53.6911C44.9396 52.458 44.4926 50.7699 45.0152 48.6598C45.9814 44.7692 47.4737 43.4175 49.0381 41.9832C50.1063 41.0039 51.2172 39.9918 52.4367 38.0168C54.0702 35.366 54.6849 33.0119 54.6257 29.6357C54.5665 26.1507 53.541 22.9163 51.6808 20.2651C51.6479 20.2222 51.615 20.1793 51.5887 20.1299C51.1023 19.454 50.5632 18.8143 49.9651 18.2143H49.8993C45.2978 18.4847 41.3834 19.3716 38.2541 20.8388C38.0339 20.941 37.7743 20.9476 37.5475 20.8388C33.886 19.1837 30.3626 18.3231 26.7867 18.2209C26.7374 18.3066 26.6782 18.389 26.6026 18.4583C23.1614 21.4883 21.2353 25.448 21.1663 29.609C21.117 32.9852 21.7316 35.3393 23.3553 37.9902C24.5681 39.9651 25.6791 40.9773 26.7539 41.9565C28.3283 43.3907 29.8073 44.7426 30.7768 48.6331C31.2994 50.7432 30.8524 52.4313 30.5238 53.6644C30.3989 54.1359 30.2871 54.5513 30.2871 54.8217C30.2871 55.3624 30.4712 55.9031 30.7834 56.213C31.0102 56.4504 31.306 56.5592 31.6676 56.5592L31.6479 56.5859ZM14.5403 40.3185H17.0383L16.3645 31.2188H15.3555L14.5403 40.3185ZM26.7669 16.5501C30.4678 16.6523 34.1194 17.503 37.8828 19.168C40.9626 17.7833 44.6897 16.9227 49.0055 16.6029V15.5808C49.0055 13.563 46.8165 11.9178 44.1246 11.9178H31.6549C28.963 11.9178 26.774 13.563 26.774 15.5808V16.5601L26.7669 16.5501ZM16.627 16.3655L23.7626 18.9306C24.1833 18.4592 24.6303 18.0008 25.1102 17.5558C25.1004 17.5063 25.0938 17.447 25.0938 17.3876V15.5743C25.0938 12.6201 28.0388 10.2232 31.6575 10.2232H44.1273C47.746 10.2232 50.691 12.6201 50.691 15.5743V16.5864C50.691 16.5864 50.7238 16.6128 50.7403 16.6293C51.4305 17.2722 52.0615 17.9712 52.6236 18.7064L65.3037 14.1499C66.155 13.8466 66.7105 13.3553 66.7105 12.9102C66.7105 12.4618 66.155 11.9738 65.3037 11.6704L42.3853 3.44095C39.6605 2.46168 36.1338 2.46168 33.4057 3.44095L16.6363 9.46797V16.372L16.627 16.3655ZM14.9442 10.0681L10.4775 11.6705C9.61965 11.9738 9.07071 12.4651 9.07071 12.9102C9.07071 13.3586 9.62618 13.8466 10.4775 14.1499L14.9442 15.7523V10.055V10.0681ZM8.22274 53.7671C7.93679 53.7671 7.65741 53.622 7.50622 53.3615C7.263 52.9659 7.3879 52.4417 7.78231 52.2042L14.3624 48.1786C14.7568 47.9346 15.2794 48.0599 15.5161 48.4555C15.7593 48.8512 15.6344 49.3753 15.24 49.6128L8.65988 53.6385C8.52512 53.7242 8.37394 53.7638 8.22274 53.7638L8.22274 53.7671ZM66.7666 52.5505C66.6154 52.5505 66.4643 52.5076 66.3295 52.4252L59.7494 48.3995C59.355 48.1555 59.2268 47.6411 59.4733 47.2422C59.7165 46.8465 60.2293 46.718 60.627 46.9652L67.2071 50.9909C67.6015 51.2349 67.7297 51.7493 67.4832 52.1482C67.3221 52.4087 67.046 52.5537 66.7666 52.5537L66.7666 52.5505ZM1.83649 38.5542C1.41578 38.5542 1.04437 38.2343 1.00493 37.8024C0.955634 37.3375 1.28103 36.9254 1.74446 36.8726L9.40268 36.0121C9.86611 35.9627 10.277 36.2891 10.3361 36.7539C10.3953 37.2188 10.0601 37.631 9.59661 37.6838L1.9384 38.5443H1.84637L1.83649 38.5542ZM73.153 37.3408H73.061L65.4028 36.4803C64.9394 36.4309 64.6107 36.0088 64.6633 35.5505C64.7126 35.0955 65.1267 34.7493 65.5967 34.8087L73.255 35.6692C73.7184 35.7186 74.0471 36.1407 73.9945 36.599C73.9452 37.0309 73.5836 37.3507 73.1629 37.3507L73.153 37.3408ZM9.3175 26.5032C9.22546 26.5032 9.14001 26.4868 9.04799 26.4604L1.74476 23.9942C1.30763 23.8425 1.06441 23.371 1.21559 22.9226C1.36678 22.4841 1.83679 22.2401 2.28377 22.3918L9.58699 24.858C10.0241 25.0097 10.2673 25.4812 10.1162 25.9296C9.99783 26.2856 9.66918 26.5032 9.3175 26.5032ZM65.6729 25.2965C65.3179 25.2965 64.9925 25.0756 64.8742 24.7228C64.723 24.2843 64.9662 23.803 65.4034 23.6513L72.7066 21.1851C73.1437 21.0334 73.6236 21.2774 73.7748 21.7159C73.926 22.1544 73.6827 22.6357 73.2456 22.7874L65.9424 25.2536C65.8503 25.2866 65.7649 25.2965 65.6729 25.2965Z"/>
</mask>
<path d="M37.8833 75C35.7962 75 34.0542 73.6251 33.6861 71.8018C33.6434 71.7754 33.6105 71.7524 33.5678 71.7161L29.857 68.4487C29.6466 68.297 29.5119 68.0432 29.5119 67.7662V61.6304C28.6705 61.4853 28.023 60.7435 28.023 59.8565V58.3893C28.023 57.6706 28.4437 57.0475 29.0583 56.7606C28.7395 56.1935 28.5719 55.5208 28.5785 54.8285C28.5785 54.357 28.7231 53.8492 28.8743 53.259C29.1701 52.1446 29.5382 50.7532 29.1175 49.0718C28.2662 45.6693 27.0895 44.5977 25.5908 43.2294C24.4897 42.2238 23.2342 41.0764 21.8965 38.9003C20.1052 35.9792 19.3985 33.2887 19.4577 29.6057C19.507 26.2888 20.618 23.0906 22.6294 20.311L16.6147 18.1514V29.5292H17.1373C17.5744 29.5292 17.9458 29.8655 17.9787 30.3139L18.7774 41.1017C18.7938 41.3391 18.7116 41.5666 18.5572 41.7347C18.3961 41.9029 18.1693 42.0051 17.9425 42.0051H13.6172C13.3805 42.0051 13.1537 41.9029 12.996 41.7281C12.8349 41.5501 12.7593 41.3226 12.7758 41.0852L13.742 30.2974C13.7848 29.8589 14.1463 29.5292 14.5834 29.5292H14.9384V17.5513L9.89978 15.7379C8.31885 15.1708 7.37554 14.1092 7.37554 12.909C7.37554 11.7089 8.31885 10.6472 9.89978 10.0801L15.4873 8.0722C15.4873 8.0722 15.5037 8.0722 15.5136 8.0623L32.8282 1.84074C35.9506 0.719755 39.8192 0.719755 42.942 1.84074L65.8604 10.0702C67.4414 10.6373 68.3847 11.699 68.3847 12.8991C68.3847 14.0993 67.4414 15.1609 65.8604 15.728L53.6103 20.133C55.3095 22.886 56.243 26.1271 56.3021 29.5956C56.3613 33.285 55.6546 35.9754 53.8634 38.8903C52.5257 41.0663 51.2734 42.2071 50.1691 43.2193C48.6703 44.5876 47.4936 45.6591 46.6423 49.0617C46.2216 50.7498 46.593 52.1346 46.8856 53.249C47.0368 53.8326 47.1715 54.337 47.1814 54.8184C47.1814 55.5108 47.0137 56.1867 46.7015 56.7505C47.3161 57.0373 47.7369 57.6605 47.7369 58.3793V59.8465C47.7369 60.7334 47.0959 61.4752 46.248 61.6203V64.1624V64.2712V64.38V67.7562C46.248 68.0331 46.1132 68.287 45.893 68.4387L42.1921 71.7061C42.1921 71.7061 42.1165 71.7654 42.0738 71.7918C41.7024 73.6051 39.9604 74.99 37.8766 74.99L37.8833 75ZM35.4939 71.9304C35.8817 72.7415 36.8053 73.3152 37.8833 73.3152C38.9613 73.3152 39.885 72.7415 40.2728 71.9304H35.484H35.4939ZM41.3082 70.2423H41.3181L43.162 68.6136H32.5946L34.4549 70.2423H41.3082ZM31.2012 66.9255H44.562V65.1286H37.032C36.5686 65.1286 36.1906 64.7494 36.1906 64.2845C36.1906 63.8197 36.5686 63.4405 37.032 63.4405H44.562V61.6601H31.2012V63.4405H33.7681C34.2316 63.4405 34.6096 63.8197 34.6096 64.2845C34.6096 64.7494 34.2316 65.1286 33.7681 65.1286H31.2012V66.9255ZM45.4034 59.9687H45.9326C45.9983 59.9687 46.0509 59.9192 46.0509 59.85V58.3828C46.0509 58.3168 46.0016 58.2641 45.9326 58.2641H29.8271C29.7613 58.2641 29.7087 58.3135 29.7087 58.3828V59.85C29.7087 59.9159 29.758 59.9687 29.8271 59.9687H45.4034ZM31.6479 56.5859H44.1244C44.486 56.5859 44.7818 56.4771 45.0086 56.2397C45.3208 55.9199 45.5049 55.3858 45.5049 54.8484C45.5049 54.578 45.3964 54.1725 45.2682 53.6911C44.9396 52.458 44.4926 50.7699 45.0152 48.6598C45.9814 44.7692 47.4737 43.4175 49.0381 41.9832C50.1063 41.0039 51.2172 39.9918 52.4367 38.0168C54.0702 35.366 54.6849 33.0119 54.6257 29.6357C54.5665 26.1507 53.541 22.9163 51.6808 20.2651C51.6479 20.2222 51.615 20.1793 51.5887 20.1299C51.1023 19.454 50.5632 18.8143 49.9651 18.2143H49.8993C45.2978 18.4847 41.3834 19.3716 38.2541 20.8388C38.0339 20.941 37.7743 20.9476 37.5475 20.8388C33.886 19.1837 30.3626 18.3231 26.7867 18.2209C26.7374 18.3066 26.6782 18.389 26.6026 18.4583C23.1614 21.4883 21.2353 25.448 21.1663 29.609C21.117 32.9852 21.7316 35.3393 23.3553 37.9902C24.5681 39.9651 25.6791 40.9773 26.7539 41.9565C28.3283 43.3907 29.8073 44.7426 30.7768 48.6331C31.2994 50.7432 30.8524 52.4313 30.5238 53.6644C30.3989 54.1359 30.2871 54.5513 30.2871 54.8217C30.2871 55.3624 30.4712 55.9031 30.7834 56.213C31.0102 56.4504 31.306 56.5592 31.6676 56.5592L31.6479 56.5859ZM14.5403 40.3185H17.0383L16.3645 31.2188H15.3555L14.5403 40.3185ZM26.7669 16.5501C30.4678 16.6523 34.1194 17.503 37.8828 19.168C40.9626 17.7833 44.6897 16.9227 49.0055 16.6029V15.5808C49.0055 13.563 46.8165 11.9178 44.1246 11.9178H31.6549C28.963 11.9178 26.774 13.563 26.774 15.5808V16.5601L26.7669 16.5501ZM16.627 16.3655L23.7626 18.9306C24.1833 18.4592 24.6303 18.0008 25.1102 17.5558C25.1004 17.5063 25.0938 17.447 25.0938 17.3876V15.5743C25.0938 12.6201 28.0388 10.2232 31.6575 10.2232H44.1273C47.746 10.2232 50.691 12.6201 50.691 15.5743V16.5864C50.691 16.5864 50.7238 16.6128 50.7403 16.6293C51.4305 17.2722 52.0615 17.9712 52.6236 18.7064L65.3037 14.1499C66.155 13.8466 66.7105 13.3553 66.7105 12.9102C66.7105 12.4618 66.155 11.9738 65.3037 11.6704L42.3853 3.44095C39.6605 2.46168 36.1338 2.46168 33.4057 3.44095L16.6363 9.46797V16.372L16.627 16.3655ZM14.9442 10.0681L10.4775 11.6705C9.61965 11.9738 9.07071 12.4651 9.07071 12.9102C9.07071 13.3586 9.62618 13.8466 10.4775 14.1499L14.9442 15.7523V10.055V10.0681ZM8.22274 53.7671C7.93679 53.7671 7.65741 53.622 7.50622 53.3615C7.263 52.9659 7.3879 52.4417 7.78231 52.2042L14.3624 48.1786C14.7568 47.9346 15.2794 48.0599 15.5161 48.4555C15.7593 48.8512 15.6344 49.3753 15.24 49.6128L8.65988 53.6385C8.52512 53.7242 8.37394 53.7638 8.22274 53.7638L8.22274 53.7671ZM66.7666 52.5505C66.6154 52.5505 66.4643 52.5076 66.3295 52.4252L59.7494 48.3995C59.355 48.1555 59.2268 47.6411 59.4733 47.2422C59.7165 46.8465 60.2293 46.718 60.627 46.9652L67.2071 50.9909C67.6015 51.2349 67.7297 51.7493 67.4832 52.1482C67.3221 52.4087 67.046 52.5537 66.7666 52.5537L66.7666 52.5505ZM1.83649 38.5542C1.41578 38.5542 1.04437 38.2343 1.00493 37.8024C0.955634 37.3375 1.28103 36.9254 1.74446 36.8726L9.40268 36.0121C9.86611 35.9627 10.277 36.2891 10.3361 36.7539C10.3953 37.2188 10.0601 37.631 9.59661 37.6838L1.9384 38.5443H1.84637L1.83649 38.5542ZM73.153 37.3408H73.061L65.4028 36.4803C64.9394 36.4309 64.6107 36.0088 64.6633 35.5505C64.7126 35.0955 65.1267 34.7493 65.5967 34.8087L73.255 35.6692C73.7184 35.7186 74.0471 36.1407 73.9945 36.599C73.9452 37.0309 73.5836 37.3507 73.1629 37.3507L73.153 37.3408ZM9.3175 26.5032C9.22546 26.5032 9.14001 26.4868 9.04799 26.4604L1.74476 23.9942C1.30763 23.8425 1.06441 23.371 1.21559 22.9226C1.36678 22.4841 1.83679 22.2401 2.28377 22.3918L9.58699 24.858C10.0241 25.0097 10.2673 25.4812 10.1162 25.9296C9.99783 26.2856 9.66918 26.5032 9.3175 26.5032ZM65.6729 25.2965C65.3179 25.2965 64.9925 25.0756 64.8742 24.7228C64.723 24.2843 64.9662 23.803 65.4034 23.6513L72.7066 21.1851C73.1437 21.0334 73.6236 21.2774 73.7748 21.7159C73.926 22.1544 73.6827 22.6357 73.2456 22.7874L65.9424 25.2536C65.8503 25.2866 65.7649 25.2965 65.6729 25.2965Z" fill="white"/>
<path d="M37.8833 75C35.7962 75 34.0542 73.6251 33.6861 71.8018C33.6434 71.7754 33.6105 71.7524 33.5678 71.7161L29.857 68.4487C29.6466 68.297 29.5119 68.0432 29.5119 67.7662V61.6304C28.6705 61.4853 28.023 60.7435 28.023 59.8565V58.3893C28.023 57.6706 28.4437 57.0475 29.0583 56.7606C28.7395 56.1935 28.5719 55.5208 28.5785 54.8285C28.5785 54.357 28.7231 53.8492 28.8743 53.259C29.1701 52.1446 29.5382 50.7532 29.1175 49.0718C28.2662 45.6693 27.0895 44.5977 25.5908 43.2294C24.4897 42.2238 23.2342 41.0764 21.8965 38.9003C20.1052 35.9792 19.3985 33.2887 19.4577 29.6057C19.507 26.2888 20.618 23.0906 22.6294 20.311L16.6147 18.1514V29.5292H17.1373C17.5744 29.5292 17.9458 29.8655 17.9787 30.3139L18.7774 41.1017C18.7938 41.3391 18.7116 41.5666 18.5572 41.7347C18.3961 41.9029 18.1693 42.0051 17.9425 42.0051H13.6172C13.3805 42.0051 13.1537 41.9029 12.996 41.7281C12.8349 41.5501 12.7593 41.3226 12.7758 41.0852L13.742 30.2974C13.7848 29.8589 14.1463 29.5292 14.5834 29.5292H14.9384V17.5513L9.89978 15.7379C8.31885 15.1708 7.37554 14.1092 7.37554 12.909C7.37554 11.7089 8.31885 10.6472 9.89978 10.0801L15.4873 8.0722C15.4873 8.0722 15.5037 8.0722 15.5136 8.0623L32.8282 1.84074C35.9506 0.719755 39.8192 0.719755 42.942 1.84074L65.8604 10.0702C67.4414 10.6373 68.3847 11.699 68.3847 12.8991C68.3847 14.0993 67.4414 15.1609 65.8604 15.728L53.6103 20.133C55.3095 22.886 56.243 26.1271 56.3021 29.5956C56.3613 33.285 55.6546 35.9754 53.8634 38.8903C52.5257 41.0663 51.2734 42.2071 50.1691 43.2193C48.6703 44.5876 47.4936 45.6591 46.6423 49.0617C46.2216 50.7498 46.593 52.1346 46.8856 53.249C47.0368 53.8326 47.1715 54.337 47.1814 54.8184C47.1814 55.5108 47.0137 56.1867 46.7015 56.7505C47.3161 57.0373 47.7369 57.6605 47.7369 58.3793V59.8465C47.7369 60.7334 47.0959 61.4752 46.248 61.6203V64.1624V64.2712V64.38V67.7562C46.248 68.0331 46.1132 68.287 45.893 68.4387L42.1921 71.7061C42.1921 71.7061 42.1165 71.7654 42.0738 71.7918C41.7024 73.6051 39.9604 74.99 37.8766 74.99L37.8833 75ZM35.4939 71.9304C35.8817 72.7415 36.8053 73.3152 37.8833 73.3152C38.9613 73.3152 39.885 72.7415 40.2728 71.9304H35.484H35.4939ZM41.3082 70.2423H41.3181L43.162 68.6136H32.5946L34.4549 70.2423H41.3082ZM31.2012 66.9255H44.562V65.1286H37.032C36.5686 65.1286 36.1906 64.7494 36.1906 64.2845C36.1906 63.8197 36.5686 63.4405 37.032 63.4405H44.562V61.6601H31.2012V63.4405H33.7681C34.2316 63.4405 34.6096 63.8197 34.6096 64.2845C34.6096 64.7494 34.2316 65.1286 33.7681 65.1286H31.2012V66.9255ZM45.4034 59.9687H45.9326C45.9983 59.9687 46.0509 59.9192 46.0509 59.85V58.3828C46.0509 58.3168 46.0016 58.2641 45.9326 58.2641H29.8271C29.7613 58.2641 29.7087 58.3135 29.7087 58.3828V59.85C29.7087 59.9159 29.758 59.9687 29.8271 59.9687H45.4034ZM31.6479 56.5859H44.1244C44.486 56.5859 44.7818 56.4771 45.0086 56.2397C45.3208 55.9199 45.5049 55.3858 45.5049 54.8484C45.5049 54.578 45.3964 54.1725 45.2682 53.6911C44.9396 52.458 44.4926 50.7699 45.0152 48.6598C45.9814 44.7692 47.4737 43.4175 49.0381 41.9832C50.1063 41.0039 51.2172 39.9918 52.4367 38.0168C54.0702 35.366 54.6849 33.0119 54.6257 29.6357C54.5665 26.1507 53.541 22.9163 51.6808 20.2651C51.6479 20.2222 51.615 20.1793 51.5887 20.1299C51.1023 19.454 50.5632 18.8143 49.9651 18.2143H49.8993C45.2978 18.4847 41.3834 19.3716 38.2541 20.8388C38.0339 20.941 37.7743 20.9476 37.5475 20.8388C33.886 19.1837 30.3626 18.3231 26.7867 18.2209C26.7374 18.3066 26.6782 18.389 26.6026 18.4583C23.1614 21.4883 21.2353 25.448 21.1663 29.609C21.117 32.9852 21.7316 35.3393 23.3553 37.9902C24.5681 39.9651 25.6791 40.9773 26.7539 41.9565C28.3283 43.3907 29.8073 44.7426 30.7768 48.6331C31.2994 50.7432 30.8524 52.4313 30.5238 53.6644C30.3989 54.1359 30.2871 54.5513 30.2871 54.8217C30.2871 55.3624 30.4712 55.9031 30.7834 56.213C31.0102 56.4504 31.306 56.5592 31.6676 56.5592L31.6479 56.5859ZM14.5403 40.3185H17.0383L16.3645 31.2188H15.3555L14.5403 40.3185ZM26.7669 16.5501C30.4678 16.6523 34.1194 17.503 37.8828 19.168C40.9626 17.7833 44.6897 16.9227 49.0055 16.6029V15.5808C49.0055 13.563 46.8165 11.9178 44.1246 11.9178H31.6549C28.963 11.9178 26.774 13.563 26.774 15.5808V16.5601L26.7669 16.5501ZM16.627 16.3655L23.7626 18.9306C24.1833 18.4592 24.6303 18.0008 25.1102 17.5558C25.1004 17.5063 25.0938 17.447 25.0938 17.3876V15.5743C25.0938 12.6201 28.0388 10.2232 31.6575 10.2232H44.1273C47.746 10.2232 50.691 12.6201 50.691 15.5743V16.5864C50.691 16.5864 50.7238 16.6128 50.7403 16.6293C51.4305 17.2722 52.0615 17.9712 52.6236 18.7064L65.3037 14.1499C66.155 13.8466 66.7105 13.3553 66.7105 12.9102C66.7105 12.4618 66.155 11.9738 65.3037 11.6704L42.3853 3.44095C39.6605 2.46168 36.1338 2.46168 33.4057 3.44095L16.6363 9.46797V16.372L16.627 16.3655ZM14.9442 10.0681L10.4775 11.6705C9.61965 11.9738 9.07071 12.4651 9.07071 12.9102C9.07071 13.3586 9.62618 13.8466 10.4775 14.1499L14.9442 15.7523V10.055V10.0681ZM8.22274 53.7671C7.93679 53.7671 7.65741 53.622 7.50622 53.3615C7.263 52.9659 7.3879 52.4417 7.78231 52.2042L14.3624 48.1786C14.7568 47.9346 15.2794 48.0599 15.5161 48.4555C15.7593 48.8512 15.6344 49.3753 15.24 49.6128L8.65988 53.6385C8.52512 53.7242 8.37394 53.7638 8.22274 53.7638L8.22274 53.7671ZM66.7666 52.5505C66.6154 52.5505 66.4643 52.5076 66.3295 52.4252L59.7494 48.3995C59.355 48.1555 59.2268 47.6411 59.4733 47.2422C59.7165 46.8465 60.2293 46.718 60.627 46.9652L67.2071 50.9909C67.6015 51.2349 67.7297 51.7493 67.4832 52.1482C67.3221 52.4087 67.046 52.5537 66.7666 52.5537L66.7666 52.5505ZM1.83649 38.5542C1.41578 38.5542 1.04437 38.2343 1.00493 37.8024C0.955634 37.3375 1.28103 36.9254 1.74446 36.8726L9.40268 36.0121C9.86611 35.9627 10.277 36.2891 10.3361 36.7539C10.3953 37.2188 10.0601 37.631 9.59661 37.6838L1.9384 38.5443H1.84637L1.83649 38.5542ZM73.153 37.3408H73.061L65.4028 36.4803C64.9394 36.4309 64.6107 36.0088 64.6633 35.5505C64.7126 35.0955 65.1267 34.7493 65.5967 34.8087L73.255 35.6692C73.7184 35.7186 74.0471 36.1407 73.9945 36.599C73.9452 37.0309 73.5836 37.3507 73.1629 37.3507L73.153 37.3408ZM9.3175 26.5032C9.22546 26.5032 9.14001 26.4868 9.04799 26.4604L1.74476 23.9942C1.30763 23.8425 1.06441 23.371 1.21559 22.9226C1.36678 22.4841 1.83679 22.2401 2.28377 22.3918L9.58699 24.858C10.0241 25.0097 10.2673 25.4812 10.1162 25.9296C9.99783 26.2856 9.66918 26.5032 9.3175 26.5032ZM65.6729 25.2965C65.3179 25.2965 64.9925 25.0756 64.8742 24.7228C64.723 24.2843 64.9662 23.803 65.4034 23.6513L72.7066 21.1851C73.1437 21.0334 73.6236 21.2774 73.7748 21.7159C73.926 22.1544 73.6827 22.6357 73.2456 22.7874L65.9424 25.2536C65.8503 25.2866 65.7649 25.2965 65.6729 25.2965Z" stroke="white" mask="url(#path-1-outside-1_1391_11241)"/>
</svg>
