<svg width="78" height="61" viewBox="0 0 78 61" fill="none" xmlns="http://www.w3.org/2000/svg">
<path d="M38.3057 0.924805C38.741 0.69236 39.26 0.692356 39.6953 0.924805L76.4697 20.5908C76.9508 20.8485 77.25 21.3509 77.25 21.8965C77.2499 22.4421 76.9506 22.9436 76.4697 23.2012L66.2178 28.6826V44.0205C66.2178 44.4771 66.0064 44.907 65.6475 45.1865L65.6484 45.1875C58.2749 50.9373 49.0726 54.1045 39.7324 54.1045H38.2656C33.7709 54.1045 29.3242 53.3884 25.0557 51.9775L24.8193 51.8994L24.8965 51.6621L25.6631 49.3262L25.7412 49.0889L25.9785 49.167C29.9519 50.48 34.086 51.1455 38.2676 51.1455H39.7344C48.1816 51.1455 56.5093 48.3589 63.2666 43.2871V30.2617L39.6953 42.8682L39.6943 42.8691C39.4768 42.9844 39.2389 43.042 39 43.042C38.7611 43.042 38.5233 42.9845 38.3057 42.8691L38.3047 42.8682L20.8633 33.54V39.0889C22.9839 39.7272 24.5398 41.686 24.54 44.0205C24.54 45.1579 24.1565 46.196 23.5361 47.0469C24.1896 49.326 24.54 51.6753 24.54 54.0537V57.542C24.5399 58.102 24.2247 58.6143 23.7236 58.8643L22.3701 59.5439C21.4478 60.0064 20.4173 60.25 19.3867 60.25C18.3563 60.2499 17.3263 60.0065 16.4043 59.5459V59.5449L15.0498 58.8652C14.5495 58.6137 14.2345 58.1022 14.2344 57.542V54.0537C14.2344 51.6757 14.5841 49.3266 15.2373 47.0479C14.6626 46.2597 14.2918 45.3102 14.2402 44.2705H11.7822V28.6826L1.53027 23.2002C1.04946 22.9425 0.75 22.4412 0.75 21.8955C0.750054 21.3499 1.04936 20.8484 1.53125 20.5908L38.3057 0.924805ZM20.9912 48.918C20.4881 49.0869 19.951 49.1865 19.3877 49.1865C18.8239 49.1865 18.2858 49.0871 17.7822 48.918C17.3875 50.5997 17.1855 52.3183 17.1855 54.0527V56.626L17.7236 56.8965C18.7504 57.4105 20.0221 57.4105 21.0488 56.8965L21.5889 56.626V54.0527C21.5889 52.3183 21.386 50.5999 20.9912 48.918ZM19.3877 41.8115C18.1742 41.8115 17.1855 42.802 17.1855 44.0205C17.1858 45.2388 18.1743 46.2285 19.3877 46.2285C20.6009 46.2283 21.5886 45.2387 21.5889 44.0205C21.5889 42.8022 20.601 41.8117 19.3877 41.8115ZM14.7344 41.8086C15.3571 40.5079 16.5108 39.5104 17.9111 39.0889V31.9609L14.7344 30.2617V41.8086ZM5.36035 21.8945L18.8506 29.1094L34.2129 20.8945C33.9831 20.4484 33.8467 19.9594 33.8467 19.4365C33.847 17.1696 36.1835 15.5 39 15.5C41.8165 15.5 44.153 17.1697 44.1533 19.4365C44.1533 21.7036 41.8167 23.374 39 23.374C38.1462 23.374 37.3584 23.2093 36.6592 22.9385L21.9854 30.7852L39 39.8838L72.6396 21.8945L39 3.9043L5.36035 21.8945ZM39 18.457C38.2912 18.4571 37.7221 18.6299 37.3379 18.8506C37.1454 18.9612 37.0046 19.0805 36.915 19.1904C36.8233 19.3031 36.7989 19.3888 36.7988 19.4365C36.7988 19.4843 36.8232 19.5698 36.915 19.6826C37.0046 19.7926 37.1453 19.9118 37.3379 20.0225C37.7221 20.2432 38.2911 20.416 39 20.416C39.709 20.416 40.2788 20.2432 40.6631 20.0225C40.8554 19.912 40.9955 19.7925 41.085 19.6826C41.1768 19.5698 41.2021 19.4843 41.2021 19.4365C41.2021 19.3888 41.1767 19.3031 41.085 19.1904C40.9955 19.0806 40.8554 18.9611 40.6631 18.8506C40.2788 18.6298 39.709 18.457 39 18.457Z" fill="white" stroke="white" stroke-width="0.5"/>
</svg>
